<svg id="Capa_1" enable-background="new 0 0 607.801 607.801" height="512" viewBox="0 0 607.801 607.801" width="512" xmlns="http://www.w3.org/2000/svg"><g><g id="Page-1_39_"><g id="_x30_40---Discount-Holiday-Insurance"><path id="Shape_101_" d="m369.869 330.826c6.033 1.564 12.45.223 17.352-3.626 4.953-3.834 7.846-9.751 7.83-16.015v-21.272c.054-7.702-4.264-14.768-11.142-18.233l-110.412-55.084v-44.388c0-22.721-13.341-40.518-30.389-40.518s-30.389 17.798-30.389 40.518v44.388l-110.412 55.145c-6.87 3.443-11.19 10.488-11.142 18.172v21.272c.003 6.231 2.874 12.114 7.783 15.951s11.311 5.202 17.359 3.7l96.413-24.098v41.531l-29.376 14.637c-6.87 3.443-11.19 10.488-11.142 18.172v12.155c-.021 5.964 2.588 11.634 7.13 15.5 4.542 3.865 10.557 5.532 16.441 4.557l16.947-2.907v4.933c0 16.783 13.605 30.389 30.389 30.389 16.744-.094 30.294-13.645 30.389-30.389v-4.933l16.997 2.877c5.871.958 11.866-.713 16.395-4.569s7.135-9.508 7.126-15.457v-12.155c.049-7.687-4.271-14.736-11.142-18.182l-29.376-14.627v-41.531zm-111.019 32.83 34.906 17.423.071 12.155-28.768-4.862c-2.947-.499-5.965.329-8.245 2.263s-3.589 4.776-3.577 7.765v16.916c.004 2.728-1.117 5.338-3.1 7.212-1.848 1.89-4.387 2.944-7.03 2.917-5.594 0-10.13-4.535-10.13-10.13v-16.915c0-5.594-4.535-10.13-10.13-10.13-.567-.003-1.133.044-1.692.142l-28.697 4.822v-12.155l34.947-17.423c3.439-1.733 5.598-5.266 5.571-9.117v-60.777c-.001-3.118-1.437-6.061-3.895-7.98-2.457-1.919-5.661-2.6-8.686-1.845l-108.973 27.248v-21.333l115.953-57.88c3.451-1.724 5.623-5.259 5.602-9.117v-50.648c0-12.155 6.078-20.259 10.13-20.259s10.13 8.104 10.13 20.259v50.648c-.002 3.839 2.167 7.35 5.602 9.066l115.953 57.89v.101 21.272l-108.994-27.248c-3.022-.747-6.22-.063-8.672 1.855s-3.886 4.857-3.888 7.971v60.777c-.019 3.86 2.157 7.395 5.612 9.117z"/><path id="Shape_100_" d="m486.217 325.771v-230.375c-.023-20.519-15.364-37.791-35.737-40.234-104.243-12.784-163.045-37.186-188.804-50.587-11.63-6.073-25.495-6.073-37.125 0-25.769 13.401-84.571 37.803-188.774 50.576-20.388 2.434-35.748 19.711-35.777 40.245v248.589c0 101.64 87.114 201.517 227.438 260.653 10.048 4.191 21.354 4.191 31.402 0 33.447-13.985 65.387-31.331 95.329-51.772 39.126 50.434 107.146 68.477 166.126 44.067s94.353-85.246 86.394-148.579-57.287-113.525-120.472-122.583zm-235.278 260.177c-5.005 2.087-10.635 2.087-15.64 0-132.646-55.895-215.04-148.62-215.04-241.964v-248.588c.027-10.285 7.735-18.928 17.95-20.127 107.372-13.169 168.717-38.695 195.712-52.735 5.758-3.014 12.627-3.014 18.385 0 26.985 14.04 88.299 39.566 195.733 52.744 10.212 1.187 17.916 9.836 17.919 20.117v228.755c-6.783.051-13.554.593-20.259 1.621v-212.648c-.075-10.098-7.526-18.623-17.524-20.046-88.907-12.51-144.964-33.083-176.314-48.125-5.525-2.641-11.948-2.641-17.473 0-31.543 15.083-87.722 35.676-176.355 48.146-9.986 1.427-17.43 9.939-17.514 20.026v230.862c0 64.94 51.063 156.744 194.183 219.577 2.642 1.218 5.518 1.847 8.428 1.844 2.865 0 5.698-.601 8.316-1.763 28.962-12.599 56.617-28.012 82.566-46.018 2.488 6.365 5.437 12.54 8.823 18.476-28.864 19.687-59.654 36.389-91.896 49.846zm76.791-88.724c-26.422 18.97-54.822 35.021-84.703 47.872-134.368-58.994-182.25-142.573-182.25-201.111l.101-230.852c91.166-12.844 149.431-34.228 182.23-49.928 32.637 15.68 90.76 37.084 182.331 49.918v217.005c-71.637 21.115-114.453 94.354-97.709 167.137zm138.228 90.294c-67.133 0-121.554-54.422-121.554-121.554s54.421-121.554 121.554-121.554 121.554 54.422 121.554 121.554c-.073 67.102-54.452 121.482-121.554 121.554z"/><path id="Path_136_" clip-rule="evenodd" d="m533.896 398.025c-3.956-3.954-10.368-3.954-14.323 0l-121.554 121.555c-2.633 2.543-3.689 6.309-2.762 9.851s3.693 6.307 7.234 7.234c3.542.927 7.308-.129 9.851-2.762l121.554-121.554c3.955-3.956 3.955-10.368 0-14.324z" fill-rule="evenodd"/><path id="Shape_99_" d="m445.699 425.446c0-16.783-13.605-30.389-30.389-30.389-16.783 0-30.389 13.605-30.389 30.389 0 16.783 13.605 30.389 30.389 30.389 16.783-.001 30.389-13.606 30.389-30.389zm-40.518 0c0-5.594 4.535-10.13 10.13-10.13 5.594 0 10.13 4.535 10.13 10.13 0 5.594-4.535 10.13-10.13 10.13-5.595-.001-10.13-4.536-10.13-10.13z"/><path id="Shape_98_" d="m516.605 476.094c-16.783 0-30.389 13.605-30.389 30.389 0 16.783 13.605 30.389 30.389 30.389 16.783 0 30.389-13.605 30.389-30.389s-13.606-30.389-30.389-30.389zm0 40.518c-5.594 0-10.129-4.535-10.129-10.13 0-5.594 4.535-10.13 10.129-10.13s10.13 4.535 10.13 10.13c0 5.594-4.535 10.13-10.13 10.13z"/></g></g></g></svg>