<svg id="Layer_5" enable-background="new 0 0 62 62" height="512" viewBox="0 0 62 62" width="512" xmlns="http://www.w3.org/2000/svg"><g><path d="m48 0c-7.72 0-14 6.28-14 14s6.28 14 14 14 14-6.28 14-14-6.28-14-14-14zm11.949 15c-.213 2.558-1.226 4.888-2.795 6.741l-1.376-1.376-1.414 1.414 1.376 1.376c-1.852 1.569-4.183 2.582-6.741 2.795v-1.95h-2v1.949c-2.558-.213-4.888-1.226-6.741-2.795l1.376-1.376-1.414-1.414-1.376 1.376c-1.569-1.852-2.582-4.183-2.795-6.741h1.951v-2h-1.949c.213-2.558 1.226-4.888 2.795-6.741l1.376 1.376 1.414-1.414-1.376-1.376c1.852-1.567 4.182-2.581 6.74-2.793v1.949h2v-1.949c2.558.213 4.888 1.226 6.741 2.795l-1.376 1.376 1.414 1.414 1.376-1.376c1.569 1.852 2.582 4.183 2.795 6.741h-1.95v2h1.949z"/><path d="m47 12c0-1.654-1.346-3-3-3s-3 1.346-3 3h2c0-.551.448-1 1-1s1 .449 1 1c0 .313-.149.612-.399.8l-3.601 2.7v2.5h6v-2h-3.333l2.134-1.601c.751-.564 1.199-1.461 1.199-2.399z"/><path d="m54 9h-3.677l-2.8 6.999 4.477.003v1.998h2v-1.997l1.988.001.002-2-1.99-.001zm-2 5.002-1.523-.001 1.2-3.001h.323z"/><circle cx="22" cy="23" r="1"/><circle cx="12" cy="23" r="1"/><path d="m17.553 28.342c.478-.239.834-.65 1.003-1.157s.131-1.049-.108-1.527l-.448-.894v-1.764h-2v2c0 .155.036.309.105.447l.553 1.105-1.105.553.895 1.789z"/><path d="m21.331 30.5-1.73-1.001c-.535.925-1.531 1.5-2.6 1.5s-2.064-.575-2.6-1.5l-1.73 1.001c.891 1.542 2.551 2.5 4.33 2.5s3.439-.958 4.33-2.5z"/><circle cx="17" cy="57" r="1"/><circle cx="17" cy="53" r="1"/><path d="m46 38.363v-2.363h2v-2h-10v2h2v2.363c-3.668.871-6.74 3.291-8.473 6.538-.811-1.284-1.792-2.435-2.915-3.427.774-1.144 1.255-2.461 1.364-3.844l.47-.235c2.192-1.096 3.555-3.3 3.555-5.751 0-1.273-.373-2.507-1.08-3.567-.603-.903-.921-1.954-.921-3.038v-6.039c0-7.168-5.832-13-13-13h-4c-7.168 0-13 5.832-13 13v6.039c0 1.084-.318 2.135-.92 3.039-.707 1.059-1.08 2.293-1.08 3.566 0 2.451 1.362 4.655 3.555 5.751l.47.235c.109 1.385.592 2.705 1.369 3.85-3.338 2.958-5.394 7.256-5.394 11.922v8.598h35 1 15c2.757 0 5-2.243 5-5 0-1.302-.839-2.402-2-2.816v-2.184h2v-1c0-6.134-4.276-11.277-10-12.637zm-4-2.363h2v2.051c-.331-.026-.662-.051-1-.051s-.669.025-1 .051zm-26.231 9.533-1.449 4.348c-.681-.248-1.19-.854-1.298-1.59l2.162-3.028zm3.047-.27 2.162 3.028c-.107.735-.617 1.342-1.298 1.59l-1.449-4.348zm-1.816-1.365-6.847-3.16c.577-.264 1.172-.498 1.792-.683l5.055 2.022 5.055-2.022c.617.184 1.208.423 1.787.686zm-3.212-9.076c-3.515-1.507-5.786-4.951-5.787-8.775l-.001-5.094c2.422-.254 4.671-1.514 6.144-3.478.412-.546 1.307-.61 1.79-.127l1.066 1.066 1.066-1.066c.483-.483 1.379-.419 1.79.127 1.46 1.946 3.683 3.201 6.144 3.471l-.001 5.101c0 3.824-2.271 7.268-5.786 8.774-.737.316-1.213 1.037-1.213 1.839v2.463l-2 .8-2-.8v-2.463c0-.801-.476-1.522-1.212-1.838zm15.763.784-1.551.776v.618c0 1.158-.345 2.275-.963 3.236-1.441-.98-3.049-1.73-4.774-2.201l-.323-.088-.94.376v-1.663c3.957-1.696 6.608-5.422 6.957-9.659h.043c.786 0 1.514-.236 2.133-.629.181 1 .552 1.958 1.123 2.815.486.73.744 1.58.744 2.458 0 1.688-.938 3.206-2.449 3.961zm-1.551-14.606c1.103 0 2 .897 2 2s-.897 2-2 2h-.001zm-13-13h4c6.065 0 11 4.935 11 11v.557c-.591-.345-1.268-.557-2-.557h-.094-1c-2.133 0-4.17-1.019-5.45-2.725-.599-.798-1.552-1.275-2.55-1.275-.696 0-1.358.222-1.906.632-.548-.41-1.21-.632-1.906-.632-.998 0-1.951.477-2.55 1.275-1.28 1.706-3.317 2.725-5.544 2.725h-1c-.732 0-1.409.212-2 .556v-.556c0-6.065 4.935-11 11-11zm-8.999 17c-1.104 0-2.001-.896-2.001-2s.897-2 2-2zm-.001 12v-.618l-1.551-.775c-1.511-.756-2.449-2.274-2.449-3.963 0-.877.258-1.727.744-2.458.571-.857.942-1.815 1.123-2.815.619.394 1.347.629 2.133.629h.043c.35 4.237 3.001 7.964 6.957 9.659v1.663l-.939-.376-.323.088c-1.738.475-3.342 1.229-4.772 2.206-.62-.962-.966-2.081-.966-3.24zm-4 16.402c0-4.655 2.333-8.899 6.011-11.45l5.325 2.458-2.336 3.27v.32c0 2.206 1.794 4 4 4h.721l1.279-3.838 1.279 3.838h.721c2.206 0 4-1.794 4-4v-.32l-2.336-3.27 5.333-2.462c1.929 1.334 3.497 3.154 4.558 5.307-.357 1.187-.555 2.443-.555 3.745v1h2v2.184c-1.161.414-2 1.514-2 2.816 0 1.13.391 2.162 1.026 3h-3.908l.838-7.537c.029-.271.044-.544.044-.817 0-1.974-.769-3.829-2.164-5.224l-.129-.129-1.414 1.414.129.129c1.017 1.018 1.578 2.371 1.578 3.81 0 .198-.011.396-.033.595l-.862 7.759h-16.21l-.862-7.76c-.022-.198-.033-.396-.033-.594 0-1.439.561-2.792 1.578-3.81l.129-.129-1.414-1.414-.129.129c-1.395 1.395-2.164 3.25-2.164 5.224 0 .273.015.546.045.816l.838 7.538h-4.883zm49 6.598h-15-1c-1.654 0-3-1.346-3-3 0-.551.448-1 1-1h20c.552 0 1 .449 1 1 0 1.654-1.346 3-3 3zm1-6h-18v-2h18zm-19.955-4c.507-5.599 5.226-10 10.955-10s10.448 4.401 10.955 10z"/></g></svg>