<svg version="1.1" id="Capa_1" xmlns="http://www.w3.org/2000/svg" xmlns:xlink="http://www.w3.org/1999/xlink" x="0px" y="0px" viewBox="0 0 512 512" style="enable-background:new 0 0 512 512;" xml:space="preserve">
<g>
	<path style="fill:none;stroke:#000000;stroke-width:15;stroke-miterlimit:5;" d="M226.317,456.626&#10;&#9;&#9;c19.262,5.769,39.665,8.87,60.779,8.87c116.984,0,212.157-95.173,212.157-212.157c0-17.718-2.196-34.93-6.308-51.392"/>
	<path style="fill:none;stroke:#000000;stroke-width:15;stroke-miterlimit:5;" d="M338.125,47.4&#10;&#9;&#9;c-16.352-4.053-33.441-6.219-51.028-6.219c-116.984,0-212.157,95.173-212.157,212.157"/>
	<path style="fill:none;stroke:#000000;stroke-width:15;stroke-linecap:square;stroke-miterlimit:5;" d="M220,415.003&#10;&#9;&#9;c20.664,8.586,43.325,13.335,67.097,13.335c96.65,0,175-78.35,175-175c0-17.073-2.454-33.571-7.015-49.17"/>
	<path style="fill:none;stroke:#000000;stroke-width:15;stroke-miterlimit:5;" d="M317.732,325.689&#10;&#9;&#9;c0-15.225,12.342-27.567,27.567-27.567c1.255,0,2.488,0.092,3.698,0.254c1.397-14.371,2.145-29.465,2.145-45.037&#10;&#9;&#9;c0-96.65-28.675-175-64.047-175c-23.599,0-44.214,34.88-55.324,86.796c14.927,0.343,26.923,12.542,26.923,27.551&#10;&#9;&#9;c0,15.225-12.342,27.567-27.567,27.567c-2.372,0-4.674-0.3-6.87-0.863c-0.79,10.984-1.209,22.332-1.209,33.949&#10;&#9;&#9;c0,96.65,28.675,175,64.047,175c21.864,0,41.165-29.941,52.721-75.629C327.219,350.167,317.732,339.037,317.732,325.689z"/>
	
		<line style="fill:none;stroke:#000000;stroke-width:15;stroke-miterlimit:5;" x1="406.401" y1="187.713" x2="258.24" y2="187.713"/>
	<g>
		<polygon points="89.185,326.205 0,385.89 0,428.381 89.185,388.591 &#9;&#9;"/>
	</g>
	<path style="fill:none;stroke:#000000;stroke-width:15;stroke-miterlimit:5;" d="M130.815,437.916V286.592&#10;&#9;&#9;c0-11.496-9.319-20.815-20.815-20.815h0c-11.496,0-20.815,9.319-20.815,20.815v151.325l-23.764,20.987v26.965L110,466.772&#10;&#9;&#9;l44.579,19.096v-26.965L130.815,437.916z"/>
	<polygon points="130.815,326.205 130.815,388.591 220,428.381 220,385.89 &#9;"/>
	<path style="fill:none;stroke:#000000;stroke-width:15;stroke-miterlimit:5;" d="M433.577,234.837l61.348-106.382&#10;&#9;&#9;c27.226-47.212-6.848-106.196-61.348-106.196h0c-54.5,0-88.574,58.984-61.348,106.196L433.577,234.837z"/>
	<circle style="fill:none;stroke:#000000;stroke-width:15;stroke-miterlimit:5;" cx="433.577" cy="95.385" r="27.567"/>
	<circle style="fill:none;stroke:#000000;stroke-width:15;stroke-miterlimit:5;" cx="231.128" cy="192.685" r="27.567"/>
	<circle style="fill:none;stroke:#000000;stroke-width:15;stroke-miterlimit:5;" cx="345.3" cy="325.689" r="27.567"/>
	
		<line style="fill:none;stroke:#000000;stroke-width:15;stroke-miterlimit:5;" x1="372.037" y1="318.963" x2="449.327" y2="318.963"/>
	
		<line style="fill:none;stroke:#000000;stroke-width:15;stroke-miterlimit:5;" x1="130.815" y1="318.963" x2="318.562" y2="318.963"/>
	
		<line style="fill:none;stroke:#000000;stroke-width:15;stroke-miterlimit:5;" x1="204.017" y1="187.713" x2="124.866" y2="187.713"/>
	<path style="fill:none;stroke:#000000;stroke-width:15;stroke-miterlimit:5;" d="M362.7,95.471&#10;&#9;&#9;c-22.885-10.98-48.525-17.133-75.604-17.133c-96.65,0-175,78.35-175,175c0,4.241,0.159,8.445,0.456,12.61"/>
</g>
<g>
</g>
<g>
</g>
<g>
</g>
<g>
</g>
<g>
</g>
<g>
</g>
<g>
</g>
<g>
</g>
<g>
</g>
<g>
</g>
<g>
</g>
<g>
</g>
<g>
</g>
<g>
</g>
<g>
</g>
</svg>