<svg id="Layer_1" enable-background="new 0 0 512 512" height="512" viewBox="0 0 512 512" width="512" xmlns="http://www.w3.org/2000/svg"><path d="m205.088 155.383c-.717-4.753-3.001-7.789-5.699-10.197 4.732-10.387 4.99-19.001.762-25.616-8.813-13.792-33.431-13.415-59.494-13.017l-.478.007c-18.146.011-42.281 5.688-55.664 21.591-6.529 7.759-9.474 17.021-8.64 26.972-42.17 23.427-68.159 67.369-68.159 115.872 0 36.097 13.39 72.554 40.936 111.453 15.825 22.347 34.539 42.895 52.33 61.069-24.692 2.823-63.162 10.259-63.162 29.161 0 24.724 64.393 31.321 102.442 31.321s102.442-6.597 102.442-31.321c0-18.902-38.47-26.338-63.162-29.161 17.79-18.174 36.505-38.722 52.329-61.068 27.546-38.9 40.937-75.357 40.937-111.454 0-48.206-25.847-92.13-67.72-115.612zm-19.188 136.618c-3.866 0-7 3.134-7 7v40.865c-11.432 6.439-24.608 10.131-38.638 10.131-14.029 0-27.205-3.692-38.637-10.131v-40.865c0-3.866-3.134-7-7-7s-7 3.134-7 7v30.843c-7.095-6.353-13.028-13.968-17.464-22.487v-25.534c0-14.032 16.322-22.967 34.815-27.62l9.251 30.743c.688 2.287 2.496 4.066 4.794 4.718.629.178 1.271.266 1.909.265 1.691 0 3.35-.613 4.647-1.765l15.791-14.017 15.791 14.017c1.297 1.152 2.956 1.765 4.647 1.765.638 0 1.28-.087 1.909-.265 2.298-.652 4.105-2.43 4.793-4.718l9.087-30.197c17.481 4.791 32.769 13.621 32.769 27.075v25.534c-4.437 8.518-10.37 16.134-17.464 22.486v-30.843c0-3.866-3.134-7-7-7zm-9.977-112.224c0 19.201-9.682 49.664-35.661 49.664s-35.661-30.463-35.661-49.664c0-2.534.734-4.338 2.381-5.849 8.981-8.24 38.372-5.702 57.82-4.022 3.477.3 6.789.586 9.821.807.771.059 1.367.689 1.356 1.472l-.057 7.54v.052zm15.901 16.329h-3.525c.613-3.08 1.052-6.2 1.316-9.329h2.209c2.58 0 4.679 2.086 4.679 4.65 0 2.58-2.099 4.679-4.679 4.679zm-50.453 58.46-11.614-12.368c3.354.812 6.856 1.243 10.505 1.243 4.783 0 9.231-.737 13.353-2.066v.172zm-22.109-3.092 12.074 12.858-6.86 6.09-5.683-18.885c.157-.022.313-.042.469-.063zm43.977.274c.204.031.407.059.611.091l-5.592 18.582-6.857-6.086zm-72.173-63.589c.079.737.169 1.475.269 2.213.016.114.03.228.046.343.251 1.801.555 3.601.924 5.392h-3.605c-2.58 0-4.679-2.099-4.679-4.679 0-2.564 2.099-4.65 4.679-4.65h2.22c.025.274.059.549.086.823.02.186.039.371.06.558zm-1.138 21.947h6.578c1.498 3.746 3.246 7.292 5.231 10.511 3.8 6.162 8.311 11.105 13.411 14.81v2.481c-15.015 2.217-28.023 6.367-37.895 12.124-7.539 4.397-12.498 9.273-15.703 14.111 1.802-21.107 11.896-40.412 28.378-54.037zm77.687 28.147v-4.594c7.254-5.969 12.8-14.231 16.547-23.553h6.435c16.465 13.61 26.554 32.889 28.371 53.969-8.395-12.642-26.27-21.776-51.353-25.822zm-72.387-101.088c8.489-10.087 26.155-16.605 45.006-16.605l.638-.009c18.092-.276 42.874-.656 47.482 6.557 2.093 3.276-.435 9.662-2.125 13.172-4.197 8.694 1.299 13.238 3.369 14.948 1.479 1.222 2.755 2.278.643 9.857l-.821 2.948c-1.699-6.114-7.102-10.775-13.753-11.283-2.999-.219-6.249-.5-9.659-.794-24.491-2.114-54.971-4.747-68.489 7.654-2.142 1.965-3.788 4.261-4.946 6.806l-2.445-14.061c-1.272-7.323.397-13.601 5.1-19.19zm133.44 335.52c-.705 1.607-6.427 6.575-24.954 10.977-17.207 4.088-39.741 6.339-63.452 6.339s-46.246-2.251-63.452-6.339c-18.527-4.402-24.249-9.37-24.954-10.977.579-1.254 4.691-5.112 17.508-8.972 11.523-3.47 27.191-6.06 44.391-7.354 3.756 3.727 7.433 7.347 10.97 10.825 3.667 3.605 7.214 7.093 10.601 10.46 1.366 1.357 3.15 2.036 4.935 2.035 1.785 0 3.57-.679 4.935-2.035 3.387-3.367 6.934-6.855 10.6-10.459 3.537-3.478 7.215-7.099 10.971-10.826 17.2 1.295 32.868 3.884 44.391 7.354 12.819 3.86 16.931 7.718 17.51 8.972zm-82.687-15.483c-1.942 1.909-3.85 3.786-5.719 5.629-1.869-1.844-3.778-3.721-5.72-5.63-47.615-46.822-112.825-110.946-112.825-186.206 0-41.663 21.449-79.556 56.561-101.056l.947 5.444c-5.497 3.25-9.203 9.216-9.203 16.044 0 5.05 2.023 9.631 5.291 12.997-17.942 17.445-28.053 41.183-28.053 66.571 0 51.282 41.721 93.003 93.002 93.003 51.282 0 93.003-41.721 93.003-93.003 0-25.388-10.111-49.125-28.053-66.571 3.268-3.365 5.291-7.946 5.291-12.997 0-6.612-3.474-12.417-8.685-15.729l1.428-5.128c34.492 21.607 55.562 59.269 55.562 100.425 0 75.261-65.212 139.385-112.827 186.207zm263.231-306.822c-26.086 0-47.309-21.222-47.309-47.308s21.223-47.308 47.309-47.308c7.104 0 13.934 1.535 20.298 4.562 3.491 1.661 4.975 5.837 3.314 9.328-1.66 3.491-5.837 4.975-9.328 3.314-4.471-2.126-9.276-3.205-14.284-3.205-18.366 0-33.309 14.942-33.309 33.308s14.942 33.308 33.309 33.308 33.308-14.942 33.308-33.308c0-3.498-.564-6.936-1.622-10.216l-27.519 25.551c-1.344 1.248-3.054 1.87-4.762 1.87-1.752 0-3.503-.654-4.857-1.959l-17.886-17.234c-2.784-2.682-2.866-7.114-.184-9.898 2.683-2.784 7.115-2.866 9.898-.184l13.119 12.64 40.729-37.816c2.833-2.63 7.261-2.467 9.893.367 2.63 2.833 2.466 7.262-.367 9.893l-7.078 6.572c3.042 6.347 4.638 13.302 4.638 20.415-.002 26.086-21.224 47.308-47.31 47.308zm-73.954 94.225c0 23.361 66.385 24.036 73.954 24.036s73.954-.675 73.954-24.036c0-13.579-22.145-19.497-41.904-22.075 30.826-31.852 63.023-72.021 63.023-119.458-.002-52.423-42.65-95.072-95.073-95.072-52.438 0-95.101 42.649-95.101 95.072 0 47.437 32.214 87.608 63.047 119.459-19.758 2.578-41.9 8.496-41.9 22.074zm73.954 10.036c-32.449 0-53.905-5.975-59.169-10.022 3.671-2.741 16.106-7.45 39.767-9.325 2.354 2.332 4.672 4.613 6.934 6.838 2.605 2.563 5.125 5.043 7.531 7.436 1.365 1.358 3.151 2.038 4.937 2.038s3.572-.679 4.937-2.038c2.395-2.383 4.903-4.851 7.497-7.403 2.273-2.236 4.601-4.528 6.966-6.871 23.659 1.875 36.094 6.583 39.767 9.324-5.268 4.047-26.724 10.023-59.167 10.023zm0-232.641c44.703 0 81.072 36.369 81.072 81.072 0 51.912-45.347 96.533-78.457 129.114-.882.867-1.754 1.725-2.615 2.574-.873-.859-1.756-1.728-2.649-2.607-33.108-32.574-78.452-77.187-78.452-129.08 0-44.704 36.381-81.073 81.101-81.073zm41.13 372.67c-3.855 0-7.001-3.146-7.001-7.001s3.146-7.002 7.001-7.002 7.002 3.146 7.002 7.002c-.001 3.855-3.147 7.001-7.002 7.001zm-111.996 0c-3.855 0-7.002-3.146-7.002-7.001s3.146-7.002 7.002-7.002c3.855 0 7.002 3.146 7.002 7.002-.001 3.855-3.147 7.001-7.002 7.001zm-27.893-2.523c-3.855 0-7.001-3.146-7.001-7.001s3.146-7.001 7.001-7.001 7.002 3.146 7.002 7.001-3.147 7.001-7.002 7.001zm-11.14-27.637c0 3.855-3.146 7.001-7.002 7.001-3.855 0-6.973-3.146-6.973-7.001s3.118-7.001 6.973-7.001c3.856-.001 7.002 3.146 7.002 7.001zm2.069-27.411c0 3.855-3.146 7.001-7.002 7.001-3.855 0-7.002-3.146-7.002-7.001s3.146-7.001 7.002-7.001c3.856-.001 7.002 3.146 7.002 7.001zm21.657-16.866c0 3.855-3.118 7.002-6.973 7.002s-7.002-3.146-7.002-7.002c0-3.855 3.146-7.001 7.002-7.001 3.855-.001 6.973 3.146 6.973 7.001zm27.893-1.588c0 3.855-3.146 7.002-7.002 7.002-3.855 0-7.001-3.146-7.001-7.002 0-3.855 3.146-7.001 7.001-7.001s7.002 3.146 7.002 7.001zm28.006 0c0 3.855-3.146 7.002-7.002 7.002-3.855 0-7.002-3.146-7.002-7.002 0-3.855 3.146-7.001 7.002-7.001 3.855 0 7.002 3.146 7.002 7.001zm26.532-5.754c0 3.855-3.118 7.002-6.973 7.002s-7.002-3.146-7.002-7.002 3.146-6.973 7.002-6.973c3.855 0 6.973 3.118 6.973 6.973zm3.741-17.915c-3.855 0-7.002-3.146-7.002-7.001s3.146-7.001 7.002-7.001c3.855 0 6.973 3.146 6.973 7.001s-3.117 7.001-6.973 7.001zm61.058 98.9c0-3.855 3.146-7.002 7.002-7.002s7.002 3.146 7.002 7.002-3.146 7.001-7.002 7.001-7.002-3.145-7.002-7.001zm17.207 21.487c0-3.855 3.146-7.001 7.001-7.001s7.002 3.146 7.002 7.001-3.146 7.001-7.002 7.001c-3.855 0-7.001-3.146-7.001-7.001zm15.647 27.722c0 3.855-3.146 7.001-7.001 7.001s-7.001-3.146-7.001-7.001 3.146-7.001 7.001-7.001c3.854 0 7.001 3.146 7.001 7.001zm-16.923 22.026c0 3.855-3.146 7.001-7.002 7.001-3.855 0-7.001-3.146-7.001-7.001s3.146-7.001 7.001-7.001c3.856-.001 7.002 3.146 7.002 7.001zm-26.504 7.568c0 3.855-3.146 7.002-7.002 7.002-3.855 0-7.001-3.146-7.001-7.002 0-3.855 3.146-7.001 7.001-7.001 3.856-.001 7.002 3.146 7.002 7.001zm-28.006 0c0 3.855-3.146 7.002-7.001 7.002s-7.002-3.146-7.002-7.002c0-3.855 3.146-7.001 7.002-7.001 3.855-.001 7.001 3.146 7.001 7.001zm-28.006 0c0 3.855-3.146 7.002-7.002 7.002-3.855 0-7.002-3.146-7.002-7.002 0-3.855 3.146-7.001 7.002-7.001 3.855-.001 7.002 3.146 7.002 7.001zm-27.978 0c0 3.855-3.146 7.002-7.001 7.002s-7.002-3.146-7.002-7.002c0-3.855 3.146-7.001 7.002-7.001 3.855-.001 7.001 3.146 7.001 7.001zm-28.006 0c0 3.855-3.146 7.002-7.002 7.002-3.855 0-7.002-3.146-7.002-7.002 0-3.855 3.146-7.001 7.002-7.001 3.856-.001 7.002 3.146 7.002 7.001zm-28.006 0c0 3.855-3.146 7.002-7.002 7.002-3.855 0-7.002-3.146-7.002-7.002 0-3.855 3.146-7.001 7.002-7.001 3.856-.001 7.002 3.146 7.002 7.001zm-28.006 0c0 3.855-3.146 7.002-7.002 7.002s-7.002-3.146-7.002-7.002c0-3.855 3.146-7.001 7.002-7.001s7.002 3.146 7.002 7.001zm-28.006 0c0 3.855-3.146 7.002-7.002 7.002-3.855 0-6.973-3.146-6.973-7.002 0-3.855 3.118-7.001 6.973-7.001 3.855-.001 7.002 3.146 7.002 7.001zm156.5-78.009c-3.855 0-7.002-3.146-7.002-7.001s3.146-7.002 7.002-7.002c3.855 0 7.001 3.146 7.001 7.002 0 3.855-3.146 7.001-7.001 7.001zm-28.007 0c-3.855 0-6.973-3.146-6.973-7.001s3.118-7.002 6.973-7.002 7.002 3.146 7.002 7.002c0 3.855-3.147 7.001-7.002 7.001zm-27.977 0c-3.855 0-7.002-3.146-7.002-7.001s3.146-7.002 7.002-7.002c3.855 0 6.973 3.146 6.973 7.002 0 3.855-3.118 7.001-6.973 7.001zm-216.934-94.393c0 3.855-3.146 7.002-7.002 7.002-3.855 0-7.002-3.146-7.002-7.002 0-3.855 3.146-7.001 7.002-7.001 3.855-.001 7.002 3.146 7.002 7.001zm0 27.524c0 3.855-3.146 7.001-7.002 7.001-3.855 0-7.002-3.146-7.002-7.001s3.146-7.002 7.002-7.002c3.855.001 7.002 3.147 7.002 7.002z"/></svg>